. 
 
http://www.torrenting.com          :     Once & For all ;)


               www . Torrenting . Com 

(((((((((((((= Enjoy No RAR releases =))))))))))))))))))))


...................................NFO:....................................

.[IMG]http://img835.imageshack.us/img835/1818/4476125.jpg[/IMG]


[color=blue][size=5][b]The.Littlest.Angel.2011.BDRip.XVID.AC3.HQ.Hive-CM8[/b][/size][/color]


[b]Thx Hive

CM8 Doing It Right The First Time :D


Source: German Bluray with Eng. Audio on it

Video: 720x400 @bitrate 1800 2pass
Audio: English DTS to AC3 5.1 @448
Sample: Yes, included[/b]
 
http://www.imdb.com/title/tt1869724/


General
Complete name                  : The.Littlest.Angel.2011.BDRip.XVID.AC3.HQ.Hive-CM8.avi
Format                         : AVI
Format/Info                    : Audio Video Interleave
File size                      : 1.31 GiB
Duration                       : 1h 23mn
Overall bit rate               : 2 257 Kbps
Writing application            : Nandub v1.0rc2
Writing library                : Nandub build 1853/release

Video
ID                             : 0
Format                         : MPEG-4 Visual
Format profile                 : Advanced Simple@L5
Format settings, BVOP          : 1
Format settings, QPel          : Yes
Format settings, GMC           : No warppoints
Format settings, Matrix        : Default (H.263)
Muxing mode                    : Packed bitstream
Codec ID                       : XVID
Codec ID/Hint                  : XviD
Duration                       : 1h 23mn
Bit rate                       : 1 800 Kbps
Width                          : 720 pixels
Height                         : 400 pixels
Display aspect ratio           : 16:9
Frame rate                     : 23.976 fps
Color space                    : YUV
Chroma subsampling             : 4:2:0
Bit depth                      : 8 bits
Scan type                      : Progressive
Compression mode               : Lossy
Bits/(Pixel*Frame)             : 0.261
Stream size                    : 1.04 GiB (80%)
Writing library                : XviD 1.2.1 (UTC 2008-12-04)

Audio
ID                             : 1
Format                         : AC-3
Format/Info                    : Audio Coding 3
Mode extension                 : CM (complete main)
Codec ID                       : 2000
Duration                       : 1h 23mn
Bit rate mode                  : Constant
Bit rate                       : 448 Kbps
Channel(s)                     : 6 channels
Channel positions              : Front: L C R, Side: L R, LFE
Sampling rate                  : 48.0 KHz
Bit depth                      : 16 bits
Compression mode               : Lossy
Stream size                    : 266 MiB (20%)
Alignment                      : Split accross interleaves
Interleave, duration           : 42 ms (1.00 video frame)
Interleave, preload duration   : 500 ms


Plot:
Based on the fifteenth best-selling children's book of all time, The Littlest Angel
tells the story of a young boy who arrives in heaven before his time.


Cast:
Ed Kelly         ...     Halo / Mr. Creepedeep
Nina Kircher 	 ... 	 Mrs. Creepedeep
Clarity Patton   ...     Angel Eve
Ron Perlman      ...     God
Caleb Wolfe      ...     Littlest Angel


[img]http://img854.imageshack.us/img854/7971/12927517.png[/img]
[img]http://img171.imageshack.us/img171/4427/llii.png[/img]
[img]http://img526.imageshack.us/img526/3369/llilii.png[/img]
[img]http://img685.imageshack.us/img685/2583/llililii.png[/img]
[img]http://img266.imageshack.us/img266/728/llliililii.png[/img]
[img]http://img88.imageshack.us/img88/9500/llliililliii.png[/img]
[img]http://img35.imageshack.us/img35/165/llliilillliiii.png[/img]
[img]http://img403.imageshack.us/img403/6985/llliililllliiiii.png[/img]
[img]http://img39.imageshack.us/img39/2623/llliilillllliiiiii.png[/img]



Greetz

ViSiON,SPK,SANTi,3LT0N,FUSiON,YanKeeS,MAGNET,THC,LKRG,Feel-Free,FANTASIA-PLAY,FANTASIA-M,FLAWL3SS,
WBZ,ZMG,BHRG,NOVA,D2U,Vik,Rapeseed,T0XiC,SAFC,goldadvance,MEMORY100,KaN1vE,Unevano,Pinnz,Wayne
Mr Hive,and most P2P groups
Great Work Guys :D

LOOKING FOR ANYTHING YOU WANT TO LOOK AND SOUND BETTER

CM8@hushmail.com